<?xml version="1.0" encoding="UTF-8" standalone="no"?>
<!-- Uploaded to: SVG Repo, www.svgrepo.com, Generator: SVG Repo Mixer Tools -->

<svg
   width="1000"
   height="1000"
   viewBox="0 0 30 30"
   fill="none"
   version="1.1"
   id="svg5"
   sodipodi:docname="book.svg"
   inkscape:version="1.3.2 (091e20e, 2023-11-25, custom)"
   xmlns:inkscape="http://www.inkscape.org/namespaces/inkscape"
   xmlns:sodipodi="http://sodipodi.sourceforge.net/DTD/sodipodi-0.dtd"
   xmlns="http://www.w3.org/2000/svg"
   xmlns:svg="http://www.w3.org/2000/svg">
  <defs
     id="defs5" />
  <sodipodi:namedview
     id="namedview5"
     pagecolor="#ffffff"
     bordercolor="#000000"
     borderopacity="0.25"
     inkscape:showpageshadow="2"
     inkscape:pageopacity="0.0"
     inkscape:pagecheckerboard="0"
     inkscape:deskcolor="#d1d1d1"
     inkscape:zoom="0.71859727"
     inkscape:cx="307.54361"
     inkscape:cy="522.54582"
     inkscape:window-width="1920"
     inkscape:window-height="1009"
     inkscape:window-x="-8"
     inkscape:window-y="-8"
     inkscape:window-maximized="1"
     inkscape:current-layer="svg5" />
  <path
     id="rect5"
     style="fill:#000000;stroke-width:0.0375462"
     d="M 0 0 L 0 30 L 30 30 L 30 0 L 0 0 z M 13.00002 4.2499805 L 16.99998 4.2499805 C 18.414177 4.2499805 19.490659 4.2459101 20.392559 4.367168 C 21.294458 4.4884257 22.070738 4.7660849 22.652344 5.3476758 C 23.233951 5.9292708 23.511532 6.7054979 23.632793 7.6074023 C 23.75408 8.5093067 23.74998 9.5857698 23.74998 10.99998 A 0.75 0.75 0 0 1 22.99998 11.74998 A 0.75 0.75 0 0 1 22.24998 10.99998 C 22.24998 9.5857698 22.244914 8.5405864 22.146504 7.8086133 C 22.048091 7.0766401 21.888886 6.705305 21.591797 6.4082227 C 21.294703 6.1111362 20.923379 5.9519275 20.191406 5.8535156 C 19.459435 5.7551006 18.414177 5.7499805 16.99998 5.7499805 L 13.00002 5.7499805 C 11.585808 5.7499805 10.540569 5.7551041 9.8085938 5.8535156 C 9.0766188 5.9519272 8.7052837 6.1111421 8.4082031 6.4082227 C 8.1111225 6.7053033 7.9519077 7.0766383 7.8534961 7.8086133 C 7.7550796 8.5405882 7.7500195 9.5857698 7.7500195 10.99998 L 7.7500195 18.927949 C 8.1028321 18.680935 8.4994306 18.491701 8.9277539 18.376934 C 9.4563908 18.23532 9.9684703 18.25002 10.898438 18.25002 L 22.24998 18.25002 L 22.24998 15 A 0.75 0.75 0 0 1 22.99998 14.25 A 0.75 0.75 0 0 1 23.74998 15 L 23.74998 19.00002 C 23.74998 20.414215 23.754055 21.490698 23.632793 22.392598 C 23.511532 23.294499 23.233945 24.070722 22.652344 24.652324 C 22.07074 25.233927 21.29446 25.511571 20.392559 25.632832 C 19.490657 25.75412 18.414177 25.75002 16.99998 25.75002 A 0.75 0.75 0 0 1 16.24998 25.00002 A 0.75 0.75 0 0 1 16.99998 24.25002 C 18.414177 24.25002 19.459437 24.244894 20.191406 24.146484 C 20.923377 24.048071 21.294701 23.888872 21.591797 23.591777 C 21.888892 23.294683 22.048094 22.923356 22.146504 22.191387 C 22.226323 21.59772 22.244123 20.785536 22.248223 19.75002 L 16.75002 19.75002 L 16.75002 22.53123 C 16.75002 22.66903 16.756436 22.78431 16.728516 22.962891 C 16.700591 23.141473 16.56544 23.481984 16.285137 23.646504 C 16.004816 23.811214 15.669344 23.77079 15.501973 23.71875 C 15.3346 23.666714 15.229378 23.610488 15.099609 23.548828 L 13.99998 23.027344 L 12.90041 23.548828 C 12.770648 23.610493 12.665446 23.66671 12.498047 23.71875 C 12.330647 23.770782 11.995079 23.811065 11.714824 23.646504 C 11.434516 23.481895 11.299404 23.141423 11.271504 22.962891 C 11.243604 22.784356 11.25 22.66903 11.25 22.53123 L 11.25 19.75002 L 10.898438 19.75002 C 9.9684708 19.75002 9.5488335 19.763411 9.3144727 19.826191 C 8.598293 20.018682 8.0290694 20.549265 7.7813086 21.239766 C 7.7966506 21.595875 7.8173521 21.922549 7.8534961 22.191387 C 7.9519077 22.923358 8.1111166 23.294685 8.4082031 23.591777 C 8.7052854 23.888866 9.0766206 24.048074 9.8085938 24.146484 C 10.540567 24.24492 11.585808 24.25002 13.00002 24.25002 A 0.75 0.75 0 0 1 13.75002 25.00002 A 0.75 0.75 0 0 1 13.00002 25.75002 C 11.585808 25.75002 10.509346 25.754094 9.6074414 25.632832 C 8.705537 25.511571 7.9292515 25.233933 7.3476562 24.652324 C 6.7660654 24.07072 6.4884649 23.294497 6.367207 22.392598 C 6.2459497 21.4907 6.2500195 20.414215 6.2500195 19.00002 L 6.2500195 10.99998 C 6.2500195 9.5857698 6.2459494 8.5093048 6.367207 7.6074023 C 6.4884648 6.7054997 6.7660595 5.9292725 7.3476562 5.3476758 C 7.9292532 4.766079 8.7055388 4.4884256 9.6074414 4.367168 C 10.509344 4.2459106 11.585808 4.2499805 13.00002 4.2499805 z M 10.99998 9.2500195 L 19.00002 9.2500195 A 0.75 0.75 0 0 1 19.75002 10.00002 A 0.75 0.75 0 0 1 19.00002 10.75002 L 10.99998 10.75002 A 0.75 0.75 0 0 1 10.24998 10.00002 A 0.75 0.75 0 0 1 10.99998 9.2500195 z M 10.99998 12.75 L 16.00002 12.75 A 0.75 0.75 0 0 1 16.75002 13.5 A 0.75 0.75 0 0 1 16.00002 14.25 L 10.99998 14.25 A 0.75 0.75 0 0 1 10.24998 13.5 A 0.75 0.75 0 0 1 10.99998 12.75 z M 12.75 19.75002 L 12.75 21.959004 L 13.5 21.603516 C 13.58759 21.56191 13.731384 21.46875 13.99998 21.46875 C 14.268578 21.46875 14.41243 21.561916 14.50002 21.603516 L 15.25002 21.959004 L 15.25002 19.75002 L 12.75 19.75002 z " />
</svg>
