<?xml version="1.0" encoding="UTF-8" standalone="no"?>
<!-- Uploaded to: SVG Repo, www.svgrepo.com, Generator: SVG Repo Mixer Tools -->

<svg
   width="1000"
   height="1000"
   viewBox="0 0 30 30"
   fill="none"
   version="1.1"
   id="svg6"
   sodipodi:docname="music.svg"
   inkscape:version="1.3.2 (091e20e, 2023-11-25, custom)"
   xmlns:inkscape="http://www.inkscape.org/namespaces/inkscape"
   xmlns:sodipodi="http://sodipodi.sourceforge.net/DTD/sodipodi-0.dtd"
   xmlns="http://www.w3.org/2000/svg"
   xmlns:svg="http://www.w3.org/2000/svg">
  <defs
     id="defs6" />
  <sodipodi:namedview
     id="namedview6"
     pagecolor="#ffffff"
     bordercolor="#000000"
     borderopacity="0.25"
     inkscape:showpageshadow="2"
     inkscape:pageopacity="0.0"
     inkscape:pagecheckerboard="0"
     inkscape:deskcolor="#d1d1d1"
     inkscape:zoom="0.508125"
     inkscape:cx="281.42681"
     inkscape:cy="725.21525"
     inkscape:window-width="1920"
     inkscape:window-height="1009"
     inkscape:window-x="-8"
     inkscape:window-y="-8"
     inkscape:window-maximized="1"
     inkscape:current-layer="svg6" />
  <path
     id="rect7"
     style="fill:#000080;stroke-width:0.03"
     d="M 0 0 L 0 30 L 30 30 L 30 0 L 0 0 z M 9.9999609 4.2500391 A 0.75 0.75 0 0 1 10.075547 4.2542578 A 0.75 0.75 0 0 1 10.097051 4.2569531 A 0.75 0.75 0 0 1 10.153066 4.2664453 A 0.75 0.75 0 0 1 10.173867 4.2707812 A 0.75 0.75 0 0 1 10.246113 4.2916406 A 0.75 0.75 0 0 1 10.254668 4.2949805 A 0.75 0.75 0 0 1 10.31584 4.3203516 A 0.75 0.75 0 0 1 10.336348 4.3303125 A 0.75 0.75 0 0 1 10.386504 4.3580273 A 0.75 0.75 0 0 1 10.404023 4.368457 A 0.75 0.75 0 0 1 10.464316 4.4112891 A 0.75 0.75 0 0 1 10.47668 4.4217188 A 0.75 0.75 0 0 1 10.5225 4.4627344 A 0.75 0.75 0 0 1 10.537266 4.4775 A 0.75 0.75 0 0 1 10.578281 4.5233203 A 0.75 0.75 0 0 1 10.588711 4.5356836 A 0.75 0.75 0 0 1 10.631543 4.5959766 A 0.75 0.75 0 0 1 10.641973 4.6134961 A 0.75 0.75 0 0 1 10.669688 4.6636523 A 0.75 0.75 0 0 1 10.679648 4.6841602 A 0.75 0.75 0 0 1 10.70502 4.745332 A 0.75 0.75 0 0 1 10.708359 4.7538867 A 0.75 0.75 0 0 1 10.729219 4.8261328 A 0.75 0.75 0 0 1 10.733555 4.8469336 A 0.75 0.75 0 0 1 10.743047 4.9029492 A 0.75 0.75 0 0 1 10.745742 4.9244531 A 0.75 0.75 0 0 1 10.749961 5.0000391 C 10.749961 5.8234396 11.066292 6.3313793 11.511738 6.6992578 C 11.957186 7.0671362 12.565528 7.2500391 12.999961 7.2500391 A 0.75 0.75 0 0 1 13.749961 8.0000391 A 0.75 0.75 0 0 1 12.999961 8.7500391 C 12.260541 8.7500391 11.451963 8.5145826 10.749961 8.0041992 L 10.749961 9.5000391 L 10.749961 13.497715 C 10.749961 13.498481 10.75002 13.499234 10.75002 13.5 C 10.75002 13.500766 10.749961 13.501519 10.749961 13.502285 L 10.749961 14.000039 A 0.75 0.75 0 0 1 10.613027 14.428535 C 10.21047 15.766502 8.9637124 16.75002 7.5 16.75002 C 5.7139676 16.75002 4.2500391 15.286032 4.2500391 13.5 C 4.2500391 11.713968 5.7139676 10.250039 7.5 10.250039 C 8.143004 10.250039 8.7437303 10.440506 9.2499609 10.766719 L 9.2499609 9.5000391 L 9.2499609 5.0000391 A 0.75 0.75 0 0 1 9.2827734 4.7932031 A 0.75 0.75 0 0 1 9.3019922 4.7382422 A 0.75 0.75 0 0 1 9.3779297 4.5891797 A 0.75 0.75 0 0 1 9.402832 4.5495703 A 0.75 0.75 0 0 1 9.5495508 4.4028516 A 0.75 0.75 0 0 1 9.5891602 4.3779492 A 0.75 0.75 0 0 1 9.7382227 4.3020117 A 0.75 0.75 0 0 1 9.793125 4.282793 A 0.75 0.75 0 0 1 9.9999609 4.2500391 z M 23.110195 5.3443359 C 23.605242 5.3248885 24.081594 5.4220561 24.523594 5.7162305 C 25.230792 6.1868995 25.50673 6.9332671 25.63043 7.7693555 C 25.7507 8.5819103 25.749989 9.654947 25.749961 10.969102 A 0.75 0.75 0 0 1 25.75002 11.017324 L 25.75002 15.00041 C 25.75002 15.41461 25.414218 15.75041 25.00002 15.75041 C 24.58582 15.75041 24.25002 15.41461 24.25002 15.00041 L 24.25002 12.108926 L 15.75 15.509004 L 15.75 22.00043 L 15.711094 22.00043 C 15.73657 22.163407 15.75 22.330221 15.75 22.5 C 15.75 24.286032 14.286014 25.75002 12.49998 25.75002 C 10.713941 25.75002 9.2499609 24.286028 9.2499609 22.5 C 9.2499609 20.713972 10.713941 19.250039 12.49998 19.250039 C 13.143014 19.250039 13.743756 19.440538 14.25 19.766777 L 14.25 11.847891 C 14.25 11.218951 14.248989 10.687547 14.296289 10.252207 C 14.345489 9.7986683 14.452707 9.3809009 14.710605 8.9932617 C 14.968605 8.6056325 15.312633 8.3455105 15.712031 8.1249609 C 16.095331 7.9132613 16.585894 7.709021 17.166094 7.4661914 L 19.166074 6.6291211 C 20.396672 6.1140321 21.397487 5.6930188 22.202285 5.4879492 C 22.50941 5.4096831 22.813168 5.3560045 23.110195 5.3443359 z M 23.167266 6.8428711 C 23.012403 6.848955 22.819277 6.8786569 22.572715 6.9414844 C 21.901017 7.112664 21.021513 7.4786135 19.745215 8.0128125 L 17.745176 8.8498828 C 17.134976 9.1052924 16.732829 9.2747185 16.437129 9.4379883 C 16.157529 9.5924079 16.036414 9.7085471 15.959414 9.8242969 C 15.882314 9.9400567 15.822 10.09662 15.7875 10.41416 C 15.751 10.74991 15.75 11.186361 15.75 11.847891 L 15.75 13.890996 L 24.248965 10.491387 C 24.246954 9.3933303 24.234277 8.581826 24.146602 7.9889062 C 24.047302 7.3177276 23.8772 7.0878901 23.6925 6.9649805 C 23.577125 6.8881555 23.425369 6.8327313 23.167266 6.8428711 z M 7.5 11.750039 C 6.524641 11.750039 5.7500391 12.524641 5.7500391 13.5 C 5.7500391 14.475359 6.524641 15.25002 7.5 15.25002 C 8.474963 15.25002 9.2493323 14.475972 9.2499609 13.501172 L 9.2499609 13.498828 C 9.2493321 12.524028 8.4749629 11.750039 7.5 11.750039 z M 22.5 17.25 C 24.286032 17.25 25.75002 18.713986 25.75002 20.50002 C 25.75002 22.286052 24.286032 23.74998 22.5 23.74998 C 20.713968 23.74998 19.250039 22.286052 19.250039 20.50002 C 19.250039 18.713986 20.713968 17.25 22.5 17.25 z M 22.5 18.75 C 21.524641 18.75 20.750039 19.524661 20.750039 20.50002 C 20.750039 21.475379 21.524641 22.24998 22.5 22.24998 C 23.475359 22.24998 24.25002 21.475379 24.25002 20.50002 C 24.25002 19.524661 23.475359 18.75 22.5 18.75 z M 12.49998 20.750039 C 11.524608 20.750039 10.749961 21.524637 10.749961 22.5 C 10.749961 23.475363 11.524608 24.25002 12.49998 24.25002 C 13.475339 24.25002 14.25 23.475359 14.25 22.5 C 14.25 21.524641 13.475339 20.750039 12.49998 20.750039 z " />
</svg>
